<svg fill="#40C057" xmlns="http://www.w3.org/2000/svg"  viewBox="0 0 24 24" width="96px" height="96px"><path d="M17.25,3H6.75C4.68,3,3,4.68,3,6.75v10.5C3,19.32,4.68,21,6.75,21h10.5c2.07,0,3.75-1.68,3.75-3.75V6.75 C21,4.68,19.32,3,17.25,3z M7.96,10.57c0,0.53-0.44,0.96-0.97,0.96c-0.53,0-0.97-0.43-0.97-0.96V8.42c0-0.53,0.44-0.96,0.97-0.96 c0.53,0,0.97,0.43,0.97,0.96V10.57z M9.6,13.07c0-0.53,0.44-0.96,0.97-0.96h1.3L10.7,6.84c-0.12-0.52,0.21-1.03,0.73-1.15 c0.25-0.06,0.51-0.01,0.73,0.13c0.22,0.14,0.37,0.35,0.42,0.6l1.44,6.44c0.06,0.29-0.01,0.59-0.19,0.82 c-0.19,0.23-0.46,0.36-0.76,0.36h-2.5C10.04,14.04,9.6,13.61,9.6,13.07z M17.94,14.49c-0.09,0.59-0.3,1.13-0.61,1.62 c-0.66,1.01-2.12,2.22-5.33,2.22c-0.53,0-0.97-0.43-0.97-0.96c0-0.53,0.44-0.97,0.97-0.97c1.85,0,3.13-0.46,3.71-1.35 c0.2-0.31,0.29-0.63,0.32-0.84c0.01-0.12,0.02-0.21,0.02-0.27v-0.07c-0.05-0.52,0.34-0.99,0.86-1.04c0.53-0.05,1.01,0.33,1.06,0.86 v0.03c0.01,0.1,0.01,0.16,0.01,0.23C17.98,14.09,17.97,14.27,17.94,14.49z M17.98,10.57c0,0.53-0.44,0.96-0.97,0.96 c-0.53,0-0.97-0.43-0.97-0.96V8.42c0-0.53,0.44-0.96,0.97-0.96c0.53,0,0.97,0.43,0.97,0.96V10.57z"/></svg>