<svg fill="#40C057" xmlns="http://www.w3.org/2000/svg"  viewBox="0 0 24 24" width="96px" height="96px"><path d="M 5.8808594 2 C 3.7408594 2 2 3.7408594 2 5.8808594 L 2 18.119141 C 2 20.259141 3.7408594 22 5.8808594 22 L 18.119141 22 C 20.259141 22 22 20.259141 22 18.119141 L 22 5.8808594 C 22 3.7408594 20.259141 2 18.119141 2 L 5.8808594 2 z M 18.660156 4.0898438 C 19.270156 4.2598437 19.740156 4.7396094 19.910156 5.3496094 L 15.779297 9.4902344 C 15.229297 9.2102344 15.139141 8.4103906 15.119141 7.6503906 L 18.660156 4.0898438 z M 13.181641 5.7558594 C 13.623203 5.7947656 14 6.153125 14 6.640625 C 14.02 8.550625 14.119531 9.5298438 14.769531 10.339844 C 15.179531 10.869844 15.869375 11.209062 17.109375 11.289062 C 17.399375 11.299063 17.619063 11.589141 17.539062 11.869141 C 17.289062 12.649141 16.559219 13.220937 15.699219 13.210938 C 15.169219 13.210938 14.769531 13.639922 14.769531 14.169922 C 14.769531 16.289922 13.059219 18 10.949219 18 C 8.3192188 18 6.4994531 15.139922 6.1894531 14.169922 C 5.2694531 11.289922 8.1 9.3808594 10 9.3808594 C 10.54 9.3808594 10.949219 8.9403906 10.949219 8.4003906 C 10.969219 7.2603906 11.720469 6.2900781 12.730469 5.8300781 C 12.880469 5.7650781 13.034453 5.7428906 13.181641 5.7558594 z M 12.220703 10 L 11.330078 10.890625 L 13.109375 12.669922 L 14 11.779297 L 12.220703 10 z M 10.449219 11.779297 L 9.5605469 12.669922 L 11.330078 14.439453 L 12.220703 13.560547 L 10.449219 11.779297 z"/></svg>