<svg fill="#40C057" xmlns="http://www.w3.org/2000/svg"  viewBox="0 0 24 24" width="96px" height="96px"><path d="M19,3H5C3.895,3,3,3.895,3,5v14c0,1.105,0.895,2,2,2h14c1.105,0,2-0.895,2-2V5C21,3.895,20.105,3,19,3z M9.5,8	C10.328,8,11,8.672,11,9.5S10.328,11,9.5,11S8,10.328,8,9.5S8.672,8,9.5,8z M7.586,16.426l0.6-4C8.223,12.181,8.433,12,8.681,12	h1.639c0.247,0,0.458,0.181,0.494,0.426l0.6,4C11.459,16.728,11.225,17,10.919,17H8.081C7.775,17,7.541,16.728,7.586,16.426z M14.5,16c-0.828,0-1.5-0.672-1.5-1.5s0.672-1.5,1.5-1.5s1.5,0.672,1.5,1.5S15.328,16,14.5,16z M15.319,12h-1.639	c-0.247,0-0.458-0.181-0.494-0.426l-0.6-4C12.541,7.272,12.775,7,13.081,7h2.839c0.306,0,0.54,0.272,0.494,0.574l-0.6,4	C15.777,11.819,15.567,12,15.319,12z"/></svg>