<svg fill="#40C057" xmlns="http://www.w3.org/2000/svg"  viewBox="0 0 24 24" width="96px" height="96px"><path d="M 6 3 C 4.3550302 3 3 4.3550302 3 6 L 3 18 C 3 19.64497 4.3550302 21 6 21 L 18 21 C 19.64497 21 21 19.64497 21 18 L 21 6 C 21 4.3550302 19.64497 3 18 3 L 6 3 z M 6 5 L 18 5 C 18.56503 5 19 5.4349698 19 6 L 19 17.921875 C 18.302057 16.820364 17.477301 15.970105 17 15.539062 L 17 12.195312 C 17 9.5923125 15.095859 7.2803906 12.505859 7.0253906 C 10.028859 6.7813906 7.8690313 8.3562656 7.2070312 10.572266 C 7.0740313 10.991266 7 11.468 7 12 L 7 16.837891 C 6.3915117 17.202552 5.705393 17.716189 5.0800781 18.402344 C 5.0283051 18.279978 5 18.144466 5 18 L 5 6 C 5 5.4349698 5.4349698 5 6 5 z M 10.667969 10.082031 C 11.390969 10.082031 12 10.961 12 12 L 12 19 L 7.375 19 C 8.0619199 18.478254 8.7785092 18.147206 9.3359375 17.949219 C 9.7349375 17.807219 10 17.432812 10 17.007812 L 10 16.005859 C 10 15.749859 9.9115156 15.493453 9.7285156 15.314453 C 8.9995156 14.596453 9 14.033 9 13 L 9 12 C 9 11.687 9.0496719 11.383609 9.1386719 11.099609 C 9.4626719 10.199609 10.272969 10.082031 10.667969 10.082031 z"/></svg>