<?xml version="1.0" ?><svg viewBox="0 0 32 32" fill="#1DB954" xmlns="http://www.w3.org/2000/svg"><title/><g data-name="emoji 7" id="emoji_7"><path d="M27,10a1,1,0,0,1-.84-.46c-.15-.24-.65-.85-1.2-1.5A1,1,0,0,1,25,6.64a1,1,0,0,1,1.41.1C26.67,7,27.49,8,27.8,8.47a1,1,0,0,1-.3,1.38A1,1,0,0,1,27,10Z"/><path d="M16,30A14,14,0,1,1,23.83,4.39a1,1,0,1,1-1.12,1.66A12,12,0,1,0,28,16a1,1,0,0,1,2,0A14,14,0,0,1,16,30Z"/><path d="M14,15a1,1,0,0,1-.8-.4L11,11.67,8.8,14.6a1,1,0,1,1-1.6-1.2l3-4a1,1,0,0,1,1.6,0l3,4a1,1,0,0,1-.2,1.4A1,1,0,0,1,14,15Z"/><path d="M24,15a1,1,0,0,1-.8-.4L21,11.67,18.8,14.6a1,1,0,0,1-1.6-1.2l3-4a1,1,0,0,1,1.6,0l3,4a1,1,0,0,1-.2,1.4A1,1,0,0,1,24,15Z"/><path d="M16,23.89A11,11,0,0,1,8.3,20.71a1,1,0,0,1,1.42-1.42,8.91,8.91,0,0,0,11.67.79,8.25,8.25,0,0,0,.89-.79,1,1,0,1,1,1.42,1.42,10.58,10.58,0,0,1-1.09.95A10.91,10.91,0,0,1,16,23.89Z"/><path d="M21.91,25.42a2.5,2.5,0,0,1-1.77-.74l-1.63-1.62a1,1,0,0,1-.26-.94,1,1,0,0,1,.65-.72,8.63,8.63,0,0,0,2.49-1.32,1,1,0,0,1,1.32.08l1,1a2.5,2.5,0,0,1,0,3.54h0A2.5,2.5,0,0,1,21.91,25.42ZM23,24Zm-2-1.29.57.58a.53.53,0,0,0,.72,0,.52.52,0,0,0,0-.72l-.38-.38C21.59,22.36,21.29,22.53,21,22.69Z"/></g></svg>