<?xml version="1.0" ?><svg viewBox="0 0 32 32" fill="#1DB954" xmlns="http://www.w3.org/2000/svg"><title/><g data-name="emoji 21" id="emoji_21"><path d="M27,10a1,1,0,0,1-.84-.46c-.15-.24-.65-.85-1.2-1.5A1,1,0,0,1,25,6.64a1,1,0,0,1,1.41.1C26.67,7,27.5,8,27.8,8.47a1,1,0,0,1-.3,1.38A1,1,0,0,1,27,10Z"/><path d="M16,30A14,14,0,1,1,23.83,4.39a1,1,0,1,1-1.12,1.66A12,12,0,1,0,28,16a1,1,0,0,1,2,0A14,14,0,0,1,16,30Z"/><path d="M11,15a3,3,0,1,1,3-3A3,3,0,0,1,11,15Zm0-4a1,1,0,1,0,1,1A1,1,0,0,0,11,11Z"/><path d="M14,24.91h-.16A7,7,0,0,1,8,18a1,1,0,0,1,1-1H23a1,1,0,0,1,1,1,7,7,0,0,1-4.67,6.59,1,1,0,0,1-.91-.12,1,1,0,0,1-.42-.82V21H15v2.91a1,1,0,0,1-.35.76A1,1,0,0,1,14,24.91ZM10.1,19A5,5,0,0,0,13,22.59V20a1,1,0,0,1,1-1h5a1,1,0,0,1,1,1v2a5,5,0,0,0,1.9-3Z"/><path d="M16.5,28A3.5,3.5,0,0,1,13,24.5V19a1,1,0,0,1,1-1h5a1,1,0,0,1,1,1v5.5A3.54,3.54,0,0,1,19,27,3.48,3.48,0,0,1,16.5,28ZM15,20v4.5a1.5,1.5,0,0,0,2.56,1.06A1.48,1.48,0,0,0,18,24.5V20Z"/><path d="M24,14a1,1,0,0,1-.8-.4,2.75,2.75,0,0,0-4.4,0,1,1,0,0,1-1.6-1.2,4.75,4.75,0,0,1,7.6,0,1,1,0,0,1-.2,1.4A1,1,0,0,1,24,14Z"/></g></svg>