<?xml version="1.0" ?><svg viewBox="0 0 32 32"  fill="#1DB954" xmlns="http://www.w3.org/2000/svg"><title/><g data-name="emoji 8" id="emoji_8"><path d="M27,10a1,1,0,0,1-.84-.46,17.77,17.77,0,0,0-1.2-1.5A1,1,0,0,1,25,6.64a1,1,0,0,1,1.41.1A20.45,20.45,0,0,1,27.8,8.47a1,1,0,0,1-.3,1.38A1,1,0,0,1,27,10Z"/><path d="M16,30A14,14,0,1,1,23.83,4.39a1,1,0,1,1-1.12,1.66A12,12,0,1,0,28,16a1,1,0,0,1,2,0A14,14,0,0,1,16,30Z"/><path d="M14,15a1,1,0,0,1-.8-.4L11,11.67,8.8,14.6a1,1,0,1,1-1.6-1.2l3-4a1,1,0,0,1,1.6,0l3,4a1,1,0,0,1-.2,1.4A1,1,0,0,1,14,15Z"/><path d="M24,15a1,1,0,0,1-.8-.4L21,11.67,18.8,14.6a1,1,0,0,1-1.6-1.2l3-4a1,1,0,0,1,1.6,0l3,4a1,1,0,0,1-.2,1.4A1,1,0,0,1,24,15Z"/><path d="M18,24H14a6,6,0,0,1-6-6,1,1,0,0,1,1-1H23a1,1,0,0,1,1,1A6,6,0,0,1,18,24Zm-7.87-5A4,4,0,0,0,14,22h4a4,4,0,0,0,3.87-3Z"/></g></svg>