<?xml version="1.0" ?><svg viewBox="0 0 32 32" fill="#1DB954" xmlns="http://www.w3.org/2000/svg"><title/><g data-name="emoji 22" id="emoji_22"><path d="M27,10a1,1,0,0,1-.84-.46c-.15-.24-.65-.85-1.2-1.5A1,1,0,0,1,25,6.64a1,1,0,0,1,1.41.1C26.67,7,27.5,8,27.8,8.47a1,1,0,0,1-.3,1.38A1,1,0,0,1,27,10Z"/><path d="M16,30A14,14,0,1,1,23.83,4.39a1,1,0,1,1-1.12,1.66A12,12,0,1,0,28,16a1,1,0,0,1,2,0A14,14,0,0,1,16,30Z"/><path d="M11,17a3,3,0,1,1,3-3A3,3,0,0,1,11,17Zm0-4a1,1,0,1,0,1,1A1,1,0,0,0,11,13Z"/><path d="M21,17a3,3,0,1,1,3-3A3,3,0,0,1,21,17Zm0-4a1,1,0,1,0,1,1A1,1,0,0,0,21,13Z"/><path d="M23,24H9a1,1,0,0,1,0-2H23a1,1,0,0,1,0,2Z"/><path d="M8,11H7A1,1,0,0,1,7,9H8a3,3,0,0,0,3-3,1,1,0,0,1,2,0A5,5,0,0,1,8,11Z"/><path d="M24.68,11.35a1,1,0,0,1-.7-.29l-.71-.71a3.09,3.09,0,0,0-4.25,0,1,1,0,1,1-1.41-1.41,5,5,0,0,1,7.07,0l.71.71a1,1,0,0,1,0,1.41A1,1,0,0,1,24.68,11.35Z"/></g></svg>