<?xml version="1.0" ?><svg viewBox="0 0 32 32" fill="#1DB954" xmlns="http://www.w3.org/2000/svg"><title/><g data-name="emoji 4" id="emoji_4"><path d="M27,10a1,1,0,0,1-.84-.46,17.77,17.77,0,0,0-1.2-1.5A1,1,0,0,1,25,6.64a1,1,0,0,1,1.41.1A20.45,20.45,0,0,1,27.8,8.47a1,1,0,0,1-.3,1.38A1,1,0,0,1,27,10Z"/><path d="M16,30A14,14,0,1,1,23.83,4.39a1,1,0,1,1-1.12,1.66A12,12,0,1,0,28,16a1,1,0,0,1,2,0A14,14,0,0,1,16,30Z"/><path d="M11,16a3,3,0,1,1,3-3A3,3,0,0,1,11,16Zm0-4a1,1,0,1,0,1,1A1,1,0,0,0,11,12Z"/><path d="M21,16a3,3,0,1,1,3-3A3,3,0,0,1,21,16Zm0-4a1,1,0,1,0,1,1A1,1,0,0,0,21,12Z"/><path d="M9,24a1,1,0,0,1-.8-.4,1,1,0,0,1,.2-1.4l2.3-1.73a3.48,3.48,0,0,1,4.51.32,1.45,1.45,0,0,0,1.89.14l.6-.46a3.48,3.48,0,0,1,4.51.32l1.5,1.5a1,1,0,0,1-1.42,1.42l-1.5-1.5a1.45,1.45,0,0,0-1.89-.14l-.6.46a3.48,3.48,0,0,1-4.51-.32,1.45,1.45,0,0,0-1.89-.14L9.6,23.8A1,1,0,0,1,9,24Z"/></g></svg>