<?xml version="1.0" ?><svg viewBox="0 0 32 32" fill="#1DB954" xmlns="http://www.w3.org/2000/svg"><title/><g data-name="emoji 31" id="emoji_31"><path d="M27,10a1,1,0,0,1-.84-.46c-.15-.24-.65-.85-1.2-1.5A1,1,0,0,1,25,6.64a1,1,0,0,1,1.41.1C26.67,7,27.5,8,27.8,8.47a1,1,0,0,1-.3,1.38A1,1,0,0,1,27,10Z"/><path d="M16,30A14,14,0,1,1,23.83,4.39a1,1,0,1,1-1.12,1.66A12,12,0,1,0,28,16a1,1,0,0,1,2,0A14,14,0,0,1,16,30Z"/><path d="M9.16,11.3a4.93,4.93,0,0,1-2.33-.58A1,1,0,0,1,7.76,9,3,3,0,0,0,11.82,7.7a1,1,0,1,1,1.77.93,5,5,0,0,1-2.95,2.44A4.76,4.76,0,0,1,9.16,11.3Z"/><path d="M23.14,11.42a5.09,5.09,0,0,1-2-.43,5,5,0,0,1-2.64-2.77,1,1,0,0,1,1.87-.72,3,3,0,0,0,3.88,1.71L25,11.07A5,5,0,0,1,23.14,11.42Z"/><path d="M8.5,19.5A1,1,0,0,1,8,17.64l3.57-2.14L8,13.36a1,1,0,1,1,1-1.72l5,3a1,1,0,0,1,0,1.72l-5,3A1,1,0,0,1,8.5,19.5Z"/><path d="M23.5,19.5a1,1,0,0,1-.51-.14l-5-3a1,1,0,0,1,0-1.72l5-3a1,1,0,0,1,1,1.72L20.44,15.5,24,17.64a1,1,0,0,1-.51,1.86Z"/><path d="M23,25H9a1,1,0,0,1-1-1,6,6,0,0,1,6-6h4a6,6,0,0,1,6,6A1,1,0,0,1,23,25ZM10.13,23H21.87A4,4,0,0,0,18,20H14A4,4,0,0,0,10.13,23Z"/><path d="M21.5,22h-11a.5.5,0,0,1,0-1h11a.5.5,0,0,1,0,1Z"/></g></svg>