<?xml version="1.0" ?><svg viewBox="0 0 32 32" fill="#1DB954" xmlns="http://www.w3.org/2000/svg"><title/><g data-name="emoji 40" id="emoji_40"><path d="M27,10a1,1,0,0,1-.84-.46,17.77,17.77,0,0,0-1.2-1.5,1,1,0,1,1,1.51-1.3,20.74,20.74,0,0,1,1.38,1.72,1,1,0,0,1-.31,1.38A1,1,0,0,1,27,10Z"/><path d="M16,30A14,14,0,1,1,23.83,4.39a1,1,0,1,1-1.12,1.66A12,12,0,1,0,28,16a1,1,0,0,1,2,0A14,14,0,0,1,16,30Z"/><path d="M23,25H9a1,1,0,0,1-1-1,6.06,6.06,0,0,1,5.36-5.95A4,4,0,0,1,14,18h4a5.57,5.57,0,0,1,4.32,2.34l.33.41A4.63,4.63,0,0,1,24,24,1,1,0,0,1,23,25ZM10.13,23H21.8a6.91,6.91,0,0,0-.71-1l-.34-.43A3.75,3.75,0,0,0,18,20H14a1.56,1.56,0,0,0-.31,0A4.21,4.21,0,0,0,10.13,23Z"/><path d="M11,17a4,4,0,1,1,4-4A4,4,0,0,1,11,17Zm0-6a2,2,0,1,0,2,2A2,2,0,0,0,11,11Z"/><path d="M21,17a4,4,0,1,1,4-4A4,4,0,0,1,21,17Zm0-6a2,2,0,1,0,2,2A2,2,0,0,0,21,11Z"/><path d="M14,10a1,1,0,0,1-.71-.29,3.23,3.23,0,0,0-4.58,0A1,1,0,1,1,7.29,8.29a5.26,5.26,0,0,1,7.42,0,1,1,0,0,1,0,1.42A1,1,0,0,1,14,10Z"/><path d="M24,10a1,1,0,0,1-.71-.29,3.23,3.23,0,0,0-4.58,0,1,1,0,0,1-1.42-1.42,5.26,5.26,0,0,1,7.42,0,1,1,0,0,1,0,1.42A1,1,0,0,1,24,10Z"/><path d="M11,14.5A1.5,1.5,0,1,1,12.5,13,1.5,1.5,0,0,1,11,14.5Zm0-2a.5.5,0,1,0,.5.5A.5.5,0,0,0,11,12.5Z"/><path d="M21,14.5A1.5,1.5,0,1,1,22.5,13,1.5,1.5,0,0,1,21,14.5Zm0-2a.5.5,0,1,0,.5.5A.5.5,0,0,0,21,12.5Z"/></g></svg>