<svg fill="#40C057" xmlns="http://www.w3.org/2000/svg"  viewBox="0 0 50 50" width="100px" height="100px"><path d="M 17.583984 0 A 1.0001 1.0001 0 0 0 16.679688 1.4277344 C 16.679688 1.4277344 17.838143 4.1059776 17.943359 9.4355469 C 17.832611 9.4514559 16.839844 9.5039063 16.839844 9.5039062 A 1.0001 1.0001 0 0 0 16.90625 11.494141 C 15.622778 12.347238 14.471947 13.388908 13.494141 14.583984 C 12.604106 12.488694 10.595683 11 8.2324219 11 C 6.6281639 11 5.0324763 11.655362 3.8242188 12.728516 C 2.6159611 13.801669 1.7739789 15.395926 2.0527344 17.152344 C 2.5898881 20.526165 5.0935351 22.988281 8.2324219 22.988281 C 8.9173525 22.988281 9.5625894 22.83664 10.167969 22.605469 C 10.120794 23.074427 10 23.516291 10 24 C 10 25.75 9.4492188 26.400391 8.6992188 27.400391 C 7.9492187 28.400391 7 29.75 7 32 C 7 35.918081 9.3244946 37.86201 10 38.384766 L 10 41 C 10 42.992476 10.759788 44.653552 11.921875 45.888672 C 13.083962 47.123792 14.613666 47.964446 16.220703 48.5625 C 19.434778 49.758608 23.004648 50 25 50 C 26.995352 50 30.565222 49.758608 33.779297 48.5625 C 35.386334 47.964446 36.916038 47.123792 38.078125 45.888672 C 39.240212 44.653552 40 42.992476 40 41 L 40 38.384766 C 40.675505 37.86201 43 35.918081 43 32 C 43 29.75 42.050781 28.400391 41.300781 27.400391 C 40.550781 26.400391 40 25.75 40 24 C 40 23.516592 39.879228 23.074293 39.832031 22.605469 C 40.436842 22.836352 41.083009 22.988281 41.767578 22.988281 C 44.906212 22.988281 47.408189 20.525152 47.945312 17.150391 C 48.224097 15.394441 47.383784 13.801557 46.175781 12.728516 C 44.967779 11.655474 43.371836 11 41.767578 11 C 39.404907 11 37.396079 12.488658 36.505859 14.583984 C 35.51924 13.378137 34.356055 12.326328 33.058594 11.46875 A 1.0002535 1.0002535 0 0 0 33.154297 9.4824219 C 33.154297 9.4824219 32.155314 9.4315146 32.042969 9.4160156 C 32.120179 4.0526176 32.949219 1.3164063 32.949219 1.3164062 A 1.0001 1.0001 0 0 0 32 0 L 17.583984 0 z M 18.9375 2 L 30.757812 2 C 30.474379 3.181426 30.120366 5.3928276 30.052734 9.2988281 C 28.708847 9.1593275 28.124886 9.0054229 25.085938 9.0019531 A 1.0001 1.0001 0 0 0 25 9 C 21.857013 9 21.283693 9.1653999 19.925781 9.3125 C 19.833671 5.4692181 19.350313 3.2475543 18.9375 2 z M 25 11 C 29.753497 11 33.886801 13.552212 36.15625 17.353516 A 1.0001 1.0001 0 0 0 38.013672 16.871094 C 38.077889 14.687697 39.741994 13 41.767578 13 C 42.79632 13 44.010409 13.480901 44.847656 14.224609 C 45.684904 14.968318 46.123919 15.87284 45.970703 16.837891 C 45.5533 19.455908 43.894402 20.988281 41.767578 20.988281 C 40.835467 20.988281 39.997547 20.620363 39.322266 20.003906 A 1.0001 1.0001 0 0 0 38.140625 19.880859 L 38.101562 19.904297 A 1.0001 1.0001 0 0 0 37.636719 20.998047 C 37.867975 21.971768 38 22.971099 38 24 C 38 26.25 38.949219 27.599609 39.699219 28.599609 C 40.449219 29.599609 41 30.25 41 32 C 41 35.5 38.445312 37.167969 38.445312 37.167969 A 1.0001 1.0001 0 0 0 38 38 L 38 41 C 38 42.507524 37.487757 43.596448 36.621094 44.517578 C 35.754431 45.438708 34.497994 46.160554 33.082031 46.6875 C 30.250106 47.741392 26.820648 48 25 48 C 23.179352 48 19.749894 47.741392 16.917969 46.6875 C 15.502006 46.160554 14.245569 45.438708 13.378906 44.517578 C 12.512243 43.596448 12 42.507524 12 41 L 12 38 A 1.0001 1.0001 0 0 0 11.554688 37.167969 C 11.554688 37.167969 9 35.5 9 32 C 9 30.25 9.5507814 29.599609 10.300781 28.599609 C 11.050781 27.599609 12 26.25 12 24 C 12 22.971099 12.132885 21.971141 12.363281 20.998047 A 1.0001 1.0001 0 0 0 11.898438 19.90625 L 11.859375 19.882812 A 1.0001 1.0001 0 0 0 10.675781 20.005859 C 10.000943 20.622716 9.1650888 20.988281 8.2324219 20.988281 C 6.1053087 20.988281 4.4461432 19.45607 4.0292969 16.837891 C 3.8760493 15.87231 4.3148513 14.968456 5.1523438 14.224609 C 5.9898362 13.480763 7.2036798 13 8.2324219 13 C 10.259221 13 11.922103 14.687449 11.986328 16.871094 A 1.0001 1.0001 0 0 0 13.84375 17.353516 C 16.113199 13.552212 20.246503 11 25 11 z M 19.052734 17.013672 C 18.434555 16.989368 17.87458 17.063089 17.394531 17.191406 C 16.114402 17.533596 15.318359 18.269531 15.318359 18.269531 A 1.0001 1.0001 0 1 0 16.681641 19.730469 C 16.681641 19.730469 17.088785 19.342607 17.910156 19.123047 C 18.731527 18.903487 19.885803 18.856763 21.470703 19.847656 A 1.0001 1.0001 0 1 0 22.529297 18.152344 C 21.524747 17.524291 20.562329 17.198223 19.689453 17.072266 C 19.471234 17.040776 19.258794 17.021773 19.052734 17.013672 z M 30.947266 17.013672 C 30.741206 17.021774 30.528766 17.040776 30.310547 17.072266 C 29.437671 17.198223 28.475253 17.524291 27.470703 18.152344 A 1.0001 1.0001 0 1 0 28.529297 19.847656 C 30.114197 18.856763 31.268473 18.903487 32.089844 19.123047 C 32.911215 19.342607 33.318359 19.730469 33.318359 19.730469 A 1.0001 1.0001 0 1 0 34.681641 18.269531 C 34.681641 18.269531 33.885598 17.533596 32.605469 17.191406 C 32.12542 17.063085 31.565445 16.989367 30.947266 17.013672 z M 18.5 21 C 17.083334 21 15.893559 21.567256 15.126953 22.429688 C 14.360347 23.292119 14 24.402778 14 25.5 C 14 26.597222 14.360347 27.707882 15.126953 28.570312 C 15.180143 28.630151 15.249442 28.67747 15.306641 28.734375 C 14.788913 28.973167 14.316248 29.263321 13.904297 29.617188 C 12.660421 30.685678 12 32.261222 12 34 C 12 35.580636 12.890571 36.812639 14.029297 37.605469 C 14.083981 38.277064 14.300437 39.24723 15.130859 40.169922 C 16.526895 41.721072 19.348485 43 25 43 C 30.651515 43 33.473105 41.721072 34.869141 40.169922 C 35.699563 39.24723 35.916019 38.277064 35.970703 37.605469 C 37.109429 36.812639 38 35.580636 38 34 C 38 32.261222 37.339579 30.685678 36.095703 29.617188 C 35.683752 29.263321 35.211087 28.973167 34.693359 28.734375 C 34.750558 28.67747 34.819857 28.630151 34.873047 28.570312 C 35.639653 27.707881 36 26.597222 36 25.5 C 36 24.402778 35.639653 23.292118 34.873047 22.429688 C 34.106441 21.567256 32.916666 21 31.5 21 C 30.083334 21 28.893559 21.567256 28.126953 22.429688 C 27.360347 23.292119 27 24.402778 27 25.5 C 27 25.740442 27.025455 25.981724 27.060547 26.220703 C 26.454507 26.078611 25.771862 26 25 26 C 24.228138 26 23.545493 26.078611 22.939453 26.220703 C 22.974545 25.981724 23 25.740442 23 25.5 C 23 24.402778 22.639653 23.292118 21.873047 22.429688 C 21.106441 21.567256 19.916666 21 18.5 21 z M 18.904297 24.160156 C 19.482351 24.16285 20.115375 24.248466 20.791016 24.451172 C 20.922775 24.777386 21 25.134494 21 25.5 C 21 26.152778 20.777013 26.792118 20.376953 27.242188 C 19.976893 27.692256 19.416666 28 18.5 28 C 17.583334 28 17.023107 27.692256 16.623047 27.242188 C 16.222987 26.792119 16 26.152778 16 25.5 C 16 25.26733 16.037218 25.039653 16.091797 24.818359 C 16.738432 24.495946 17.696277 24.154526 18.904297 24.160156 z M 31.125 24.160156 C 32.308905 24.154638 33.255898 24.484118 33.902344 24.800781 C 33.959862 25.027529 34 25.261024 34 25.5 C 34 26.152778 33.777013 26.792118 33.376953 27.242188 C 32.976893 27.692256 32.416666 28 31.5 28 C 30.583334 28 30.023107 27.692256 29.623047 27.242188 C 29.222987 26.792119 29 26.152778 29 25.5 C 29 25.139073 29.074548 24.78588 29.203125 24.462891 C 29.891757 24.252561 30.537169 24.162896 31.125 24.160156 z M 19 25 A 1 1 0 0 0 19 27 A 1 1 0 0 0 19 25 z M 31 25 A 1 1 0 0 0 31 27 A 1 1 0 0 0 31 25 z M 25 28 C 26.208333 28 27.050001 28.237476 27.509766 28.496094 C 27.96953 28.754711 28 28.944444 28 29 C 28 29.05556 27.96953 29.245289 27.509766 29.503906 C 27.050001 29.762524 26.208333 30 25 30 C 23.791667 30 22.949999 29.762524 22.490234 29.503906 C 22.03047 29.245289 22 29.055556 22 29 C 22 28.944444 22.03047 28.754711 22.490234 28.496094 C 22.949999 28.237476 23.791667 28 25 28 z M 19 30 C 19.470237 30 19.892614 30.031765 20.294922 30.074219 C 20.562928 30.550502 20.992454 30.955106 21.509766 31.246094 C 22.172758 31.619027 23.002297 31.858554 24 31.953125 L 24 36.291016 C 23.422832 36.523688 22.041155 37 19 37 C 17.934714 37 16.64944 36.738113 15.681641 36.251953 A 1.0001 1.0001 0 0 0 15.287109 36.027344 C 14.469428 35.521164 14 34.916562 14 34 C 14 32.738778 14.413657 31.814322 15.207031 31.132812 C 16.000405 30.451303 17.247615 30 19 30 z M 31 30 C 32.752385 30 33.999595 30.451303 34.792969 31.132812 C 35.586343 31.814322 36 32.738778 36 34 C 36 34.903229 35.543267 35.503996 34.748047 36.005859 A 1.0001 1.0001 0 0 0 34.287109 36.267578 C 33.32273 36.743797 32.0541 37 31 37 C 27.958845 37 26.577168 36.523688 26 36.291016 L 26 31.953125 C 26.997703 31.858554 27.827242 31.619027 28.490234 31.246094 C 29.007546 30.955106 29.437072 30.550502 29.705078 30.074219 C 30.107088 30.031822 30.529639 30 31 30 z M 24 38.380859 L 24 40.970703 C 23.271702 40.947475 22.601345 40.905206 22 40.837891 L 22 38.800781 C 22.868242 38.679702 23.502387 38.527707 24 38.380859 z M 26 38.380859 C 26.497613 38.527707 27.131758 38.679702 28 38.800781 L 28 40.837891 C 27.398655 40.905206 26.728298 40.947475 26 40.970703 L 26 38.380859 z M 18 38.947266 C 18.339562 38.980467 18.675792 39 19 39 C 19.35453 39 19.678677 38.987619 20 38.974609 L 20 40.505859 C 19.170869 40.308769 18.517766 40.068054 18 39.810547 L 18 38.947266 z M 32 38.947266 L 32 39.810547 C 31.482234 40.068054 30.829131 40.308769 30 40.505859 L 30 38.974609 C 30.321323 38.987619 30.64547 39 31 39 C 31.324208 39 31.660438 38.980467 32 38.947266 z"/></svg>