<svg fill="#40C057" xmlns="http://www.w3.org/2000/svg"  viewBox="0 0 50 50" width="100px" height="100px"><path d="M 25 0 C 11.204575 0 0 11.204575 0 25 L 0 37 L 0 41 C 0 42.509849 0.9140261 43.831722 2.2675781 44.898438 C 3.6211302 45.965153 5.4689471 46.857466 7.7128906 47.605469 C 12.200778 49.101474 18.282421 50 25 50 C 31.717579 50 37.799222 49.101474 42.287109 47.605469 C 44.531053 46.857466 46.37887 45.965152 47.732422 44.898438 C 49.085974 43.831722 50 42.509849 50 41 L 50 37 L 50 25 C 50 11.204575 38.795425 0 25 0 z M 25 2 C 37.714575 2 48 12.285425 48 25 L 48 28.603516 C 47.409505 27.98816 46.71933 27.409957 45.929688 26.882812 C 43.621801 25.34213 40.495104 24.121858 36.826172 23.279297 C 36.626074 21.996504 36.28143 20.883819 35.935547 19.966797 C 35.879698 19.818728 35.846087 19.725633 35.792969 19.585938 C 35.844429 19.223761 35.880859 18.840087 35.880859 18.429688 C 35.880859 16.914349 35.509567 15.649526 35 15.193359 L 35 14.710938 C 35 14.644443 34.992084 14.579778 34.990234 14.513672 C 34.974551 13.51267 34.846129 11.810617 33.679688 10.232422 C 32.338236 8.4174377 29.693296 7 25 7 C 20.306704 7 17.661764 8.4174377 16.320312 10.232422 C 15.153872 11.810617 15.025449 13.51267 15.009766 14.513672 C 15.007916 14.579778 15 14.644443 15 14.710938 L 15 15.095703 C 14.429335 15.446613 14 16.797681 14 18.429688 C 14 18.932267 14.042417 19.40518 14.115234 19.832031 C 14.095767 19.883445 14.084231 19.914361 14.064453 19.966797 C 13.71857 20.883819 13.373926 21.996504 13.173828 23.279297 C 9.5048959 24.121858 6.3781985 25.34213 4.0703125 26.882812 C 3.2806694 27.409957 2.590495 27.98816 2 28.603516 L 2 25 C 2 12.285425 12.285425 2 25 2 z M 21.730469 10 L 25 10 L 28.269531 10 C 29.541395 10 30.574341 10.390083 31.359375 11.027344 C 31.239207 11.017988 31.115251 11 31 11 C 30.027778 11 29.318628 11.347102 28.78125 11.585938 C 28.243872 11.824771 27.833333 12 27 12 A 1.0001 1.0001 0 1 0 27 14 C 28.166667 14 29.006128 13.675229 29.59375 13.414062 C 30.181372 13.152897 30.472222 13 31 13 C 31.505682 13 31.970447 13.128288 32.318359 13.466797 C 32.666271 13.805306 33 14.430556 33 15.75 L 33 17.158203 C 33 18.3827 33.582379 19.393776 34.064453 20.671875 C 34.546527 21.949974 35 23.440345 35 25.316406 L 35 29.394531 C 35 32.848152 33.900615 35.20013 32.324219 36.734375 C 30.747823 38.26862 28.642807 39 26.539062 39 L 23.462891 39 C 21.358596 39 19.252284 38.268617 17.675781 36.734375 C 16.099278 35.200133 15 32.848152 15 29.394531 L 15 25.316406 C 15 23.440345 15.453473 21.949974 15.935547 20.671875 C 16.417621 19.393776 17 18.3827 17 17.158203 L 17 17 C 17 16.286807 17.116112 15.40239 17.388672 14.830078 C 17.661231 14.257766 17.886339 14 18.625 14 C 18.891204 14 18.979584 14.08643 19.478516 14.378906 C 19.845433 14.593996 20.377384 14.853429 21.09375 15.005859 C 21.061242 15.005106 21.033085 15 21 15 C 19.328 15 18.394469 15.975734 18.105469 16.552734 C 17.865469 17.033734 18.057297 17.601375 18.529297 17.859375 C 18.681297 17.942375 18.844859 17.97575 19.005859 17.96875 C 19.024859 17.43175 19.459 17 20 17 C 20.15 17 20.289016 17.038656 20.416016 17.097656 C 20.759016 17.255656 21 17.598 21 18 C 21 18.552 20.552 19 20 19 C 19.738 19 19.502219 18.894516 19.324219 18.728516 C 19.533219 19.461516 20.201 20 21 20 C 21.966 20 22.75 19.216 22.75 18.25 C 22.75 18.147 22.737703 18.046266 22.720703 17.947266 C 22.811703 17.977266 22.904953 18 23.001953 18 C 23.151953 18 23.304266 17.965531 23.447266 17.894531 C 23.941266 17.646531 24.141531 17.046734 23.894531 16.552734 C 23.665962 16.096387 23.026808 15.398318 21.945312 15.123047 A 1.0001 1.0001 0 1 0 22.0625 13.126953 C 21.225606 13.074647 20.897552 12.891116 20.490234 12.652344 C 20.082916 12.413571 19.483796 12 18.625 12 C 18.281495 12 17.961281 12.055862 17.662109 12.148438 C 18.42677 10.842648 19.826428 10 21.730469 10 z M 29 15 C 27.328 15 26.394469 15.975734 26.105469 16.552734 C 25.865469 17.033734 26.057297 17.601375 26.529297 17.859375 C 26.681297 17.942375 26.844859 17.97575 27.005859 17.96875 C 27.024859 17.43175 27.459 17 28 17 C 28.15 17 28.289016 17.038656 28.416016 17.097656 C 28.759016 17.255656 29 17.598 29 18 C 29 18.552 28.552 19 28 19 C 27.738 19 27.502219 18.894516 27.324219 18.728516 C 27.533219 19.461516 28.201 20 29 20 C 29.966 20 30.75 19.216 30.75 18.25 C 30.75 18.147 30.737703 18.046266 30.720703 17.947266 C 30.811703 17.977266 30.904953 18 31.001953 18 C 31.151953 18 31.304266 17.965531 31.447266 17.894531 C 31.941266 17.646531 32.141531 17.046734 31.894531 16.552734 C 31.605531 15.975734 30.672 15 29 15 z M 25 21.001953 C 24.557137 21.001953 24.115131 21.102374 23.708984 21.304688 A 1.0001 1.0001 0 0 0 23.583984 21.378906 L 22.429688 22.177734 A 1.0006883 1.0006883 0 1 0 23.570312 23.822266 L 24.617188 23.095703 C 24.863028 22.979267 25.136972 22.979267 25.382812 23.095703 L 26.429688 23.822266 A 1.0006883 1.0006883 0 0 0 27.570312 22.177734 L 26.416016 21.378906 A 1.0001 1.0001 0 0 0 26.291016 21.304688 C 25.884869 21.102374 25.442863 21.001953 25 21.001953 z M 30.960938 24 A 1.0001 1.0001 0 0 0 30.199219 24.400391 C 30.199219 24.400391 29.695353 25.066613 28.59375 25.373047 C 28.365635 25.421238 28.257992 25.457263 27.916016 25.513672 C 26.625131 25.726604 24.472522 25.937411 21.271484 25.982422 C 20.538235 25.891954 20.175781 25.400391 20.175781 25.400391 A 1.0001 1.0001 0 0 0 19.402344 25 A 1.0001 1.0001 0 0 0 19.234375 25.009766 C 19.234375 25.009766 17.859847 25.228179 17.130859 26.503906 A 1.0007574 1.0007574 0 1 0 18.869141 27.496094 C 18.98725 27.289402 19.065967 27.264791 19.154297 27.238281 C 19.154297 27.238281 19.535422 28.913384 21.019531 30.044922 C 21.499132 30.410521 22.101093 30.702739 22.857422 30.835938 C 23.614429 30.969255 24.545688 31 26 31 C 27.899238 31 29.204253 29.695181 29.96875 28.558594 C 30.667272 27.520092 30.976353 26.589498 31.03125 26.419922 C 31.084044 26.468382 31.145649 26.520838 31.164062 26.548828 A 1.0001 1.0001 0 1 0 32.835938 25.451172 C 32.344084 24.703554 31.613281 24.210938 31.613281 24.210938 A 1.0001 1.0001 0 0 0 30.960938 24 z M 13 25.375 L 13 29.394531 C 13 30.931526 13.208752 32.315364 13.576172 33.554688 C 11.586375 34.150885 9.8820059 34.881326 8.5917969 35.746094 C 7.0818379 36.758149 6 38.011711 6 39.544922 C 6 40.039571 6.1262467 40.502439 6.3417969 40.931641 C 5.181532 40.423905 4.2073514 39.880961 3.5058594 39.328125 C 2.4305052 38.480653 2 37.699151 2 37 L 2 33 C 2 31.516186 3.036822 29.975442 5.1796875 28.544922 C 7.0764782 27.278675 9.7769972 26.172003 13 25.375 z M 37 25.375 C 40.223003 26.172003 42.923522 27.278675 44.820312 28.544922 C 46.963178 29.975442 48 31.516186 48 33 L 48 37 C 48 37.699151 47.569495 38.480653 46.494141 39.328125 C 45.792648 39.880961 44.818468 40.423905 43.658203 40.931641 C 43.873753 40.502439 44 40.039571 44 39.544922 C 44 38.011456 42.918162 36.756196 41.408203 35.744141 C 40.117994 34.879373 38.413577 34.149132 36.423828 33.552734 C 36.790928 32.313865 37 30.93078 37 29.394531 L 37 25.375 z M 28.275391 27.476562 C 27.698378 28.320503 26.954075 29 26 29 C 24.579312 29 23.718571 28.957619 23.205078 28.867188 C 22.691585 28.776757 22.545612 28.694019 22.232422 28.455078 A 1.0001 1.0001 0 0 0 22.230469 28.455078 C 22.034115 28.305371 21.939141 28.128916 21.814453 27.953125 A 1.0001 1.0001 0 0 0 21.976562 27.886719 C 24.613715 27.812268 27.01179 27.688958 28.240234 27.486328 C 28.264484 27.482328 28.251541 27.480662 28.275391 27.476562 z M 25 33 C 23.75 33 23 33.77 23 34.875 C 23 35.5 23.56 36 24.25 36 C 24.94 36 25.5 35.552 25.5 35 C 25.5 35 26 35 26 35.625 C 26 36.5 25 37 25 37 C 25 37 27 36.75 27 35 C 27 33.895 26.105 33 25 33 z M 14.306641 35.423828 C 14.514667 35.842454 14.742396 36.239776 14.992188 36.611328 C 14.986588 37.148071 14.975677 37.64778 14.957031 38.109375 C 13.440515 38.479484 12.145601 38.917131 11.152344 39.431641 C 10.574086 39.73118 10.090068 40.050995 9.703125 40.449219 C 9.5138041 40.644059 9.3434939 40.87009 9.2167969 41.123047 C 9.1494576 41.078209 9.0672481 41.033218 9.0058594 40.988281 C 8.243621 40.430322 8 39.968121 8 39.544922 C 8 39.020133 8.4735371 38.231695 9.7050781 37.40625 C 10.786519 36.68141 12.385439 35.989885 14.306641 35.423828 z M 35.693359 35.423828 C 37.614619 35.990137 39.213481 36.68141 40.294922 37.40625 C 41.526463 38.231695 42 39.019388 42 39.544922 C 42 39.968121 41.756379 40.430322 40.994141 40.988281 C 40.932752 41.033218 40.850542 41.078209 40.783203 41.123047 C 40.656506 40.87009 40.486196 40.644059 40.296875 40.449219 C 39.909932 40.050995 39.425914 39.73118 38.847656 39.431641 C 37.854399 38.917131 36.559485 38.479484 35.042969 38.109375 C 35.024323 37.64778 35.013413 37.148071 35.007812 36.611328 C 35.257599 36.239776 35.485331 35.842454 35.693359 35.423828 z M 16.929688 38.734375 C 18.820798 40.272035 21.162452 41 23.462891 41 L 26.539062 41 C 28.839098 41 31.179537 40.272033 33.070312 38.734375 C 33.164972 40.536592 33.343605 41.823468 33.533203 42.703125 C 33.588915 42.961603 33.646152 43.169048 33.701172 43.365234 C 32.175524 43.608081 30.500439 43.788427 28.71875 43.892578 C 28.582891 43.89978 28.44718 43.907635 28.310547 43.914062 C 27.889825 43.935801 27.46421 43.951437 27.033203 43.964844 C 26.361541 43.984067 25.686591 44 25 44 C 24.313409 44 23.638459 43.984067 22.966797 43.964844 C 22.53579 43.951437 22.110175 43.935801 21.689453 43.914062 C 21.55282 43.907635 21.417109 43.89978 21.28125 43.892578 C 19.499561 43.788427 17.824476 43.608081 16.298828 43.365234 C 16.353848 43.169048 16.411085 42.961603 16.466797 42.703125 C 16.656459 41.823468 16.835023 40.536592 16.929688 38.734375 z M 14.816406 40.205078 C 14.72722 41.094893 14.618316 41.786682 14.511719 42.28125 C 14.445163 42.590041 14.384295 42.812945 14.328125 42.994141 C 13.702931 42.858203 13.101126 42.714539 12.552734 42.554688 C 12.025644 42.401044 11.55342 42.233334 11.107422 42.060547 C 11.086331 42.042082 11.048794 42.01657 11.035156 42.001953 C 11.024344 41.990364 11.028067 41.995615 11.021484 41.988281 C 11.03809 41.960185 11.064499 41.918076 11.136719 41.84375 C 11.298557 41.677193 11.619399 41.441617 12.072266 41.207031 C 12.735968 40.863232 13.678524 40.515248 14.816406 40.205078 z M 35.183594 40.205078 C 36.321476 40.515248 37.264032 40.863232 37.927734 41.207031 C 38.380601 41.441617 38.701443 41.677193 38.863281 41.84375 C 38.935501 41.918075 38.96191 41.960185 38.978516 41.988281 C 38.971933 41.99562 38.975657 41.990357 38.964844 42.001953 C 38.951207 42.01657 38.913669 42.042082 38.892578 42.060547 C 38.44658 42.233334 37.974356 42.401044 37.447266 42.554688 C 36.898874 42.714539 36.297069 42.858203 35.671875 42.994141 C 35.615706 42.812945 35.554837 42.590041 35.488281 42.28125 C 35.381684 41.786682 35.27278 41.094893 35.183594 40.205078 z M 2 40.654297 C 2.0928949 40.733883 2.16993 40.821482 2.2675781 40.898438 C 3.6211302 41.965153 5.4689471 42.857466 7.7128906 43.605469 C 9.4158279 44.173131 11.349428 44.654043 13.458984 45.033203 C 13.714393 45.089322 13.93477 45.155676 14.208984 45.207031 C 16.558265 45.647008 19.605876 45.893434 22.974609 45.966797 C 23.640589 45.986357 24.314739 46 25 46 C 25.685261 46 26.359411 45.986357 27.025391 45.966797 C 30.394124 45.893434 33.441735 45.647008 35.791016 45.207031 C 36.06523 45.155676 36.285607 45.089322 36.541016 45.033203 C 38.650572 44.654043 40.584172 44.173131 42.287109 43.605469 C 44.531053 42.857466 46.37887 41.965153 47.732422 40.898438 C 47.83007 40.821482 47.907105 40.733883 48 40.654297 L 48 41 C 48 41.699151 47.569495 42.480653 46.494141 43.328125 C 45.418786 44.175597 43.753478 45.009237 41.654297 45.708984 C 37.455934 47.108479 31.537421 48 25 48 C 18.462579 48 12.544066 47.108479 8.3457031 45.708984 C 6.2465217 45.009237 4.5812136 44.175597 3.5058594 43.328125 C 2.4305052 42.480653 2 41.699151 2 41 L 2 40.654297 z"/></svg>