<?xml version="1.0" ?><svg viewBox="0 0 32 32" fill="#1DB954" xmlns="http://www.w3.org/2000/svg"><title/><g data-name="emoji 15" id="emoji_15"><path d="M27,10a1,1,0,0,1-.84-.46,17.77,17.77,0,0,0-1.2-1.5A1,1,0,0,1,25,6.64a1,1,0,0,1,1.41.1A20.45,20.45,0,0,1,27.8,8.47a1,1,0,0,1-.3,1.38A1,1,0,0,1,27,10Z"/><path d="M16,30A14,14,0,1,1,23.83,4.39a1,1,0,1,1-1.12,1.66A12,12,0,1,0,28,16a1,1,0,0,1,2,0A14,14,0,0,1,16,30Z"/><path d="M16,23.9a10.81,10.81,0,0,1-7.7-3.19,1,1,0,0,1,0-1.41,1,1,0,0,1,1.42,0,8.88,8.88,0,0,0,12.56,0,1,1,0,0,1,1.42,0,1,1,0,0,1,0,1.41A10.81,10.81,0,0,1,16,23.9Z"/><path d="M11,16a1,1,0,0,1-.8-.4l-3-4a1,1,0,1,1,1.6-1.2L11,13.33l2.2-2.93a1,1,0,1,1,1.6,1.2l-3,4A1,1,0,0,1,11,16Z"/><path d="M21,16a1,1,0,0,1-.8-.4l-3-4a1,1,0,0,1,1.6-1.2L21,13.33l2.2-2.93a1,1,0,1,1,1.6,1.2l-3,4A1,1,0,0,1,21,16Z"/></g></svg>