<svg fill="#40C057" xmlns="http://www.w3.org/2000/svg"  viewBox="0 0 50 50" width="100px" height="100px"><path d="M 14 3 C 12.061489 3 9.8721155 4.2156333 8.4003906 6.4492188 C 6.1913864 9.8026996 5.9091596 14.755099 6.0175781 18.742188 C 5.6118909 18.576268 5.1888678 18.449219 4.7246094 18.449219 C 2.6655466 18.449219 0.97460938 20.140156 0.97460938 22.199219 C 0.97460938 23.465602 1.7097536 24.464472 2.6816406 25.144531 C 2.5619156 25.511752 2.3613281 25.846391 2.3613281 26.25 C 2.3613281 27.548086 3.0342311 28.697057 4.046875 29.371094 C 2.9628111 31.990174 2.6621046 34.823625 3.3984375 37.572266 C 4.494295 41.661831 7.6418174 44.761388 11.71875 46.460938 C 12.63612 46.843361 13.607827 47.147496 14.611328 47.388672 C 14.787513 47.446002 14.957783 47.509867 15.138672 47.560547 C 18.18435 48.413866 21.959243 48.387911 25.841797 47.347656 C 29.447506 46.381576 32.521929 44.700175 34.714844 42.654297 C 35.893239 41.681187 36.946383 40.61621 37.824219 39.466797 C 40.505126 35.956495 41.683743 31.696969 40.587891 27.607422 C 39.7076 24.321668 37.514629 21.699241 34.568359 19.904297 C 37.482188 19.810376 40.92573 19.59649 43.716797 18.976562 C 46.123752 18.441683 47.750154 17.454426 48.732422 16.169922 C 49.71469 14.885418 50 13.383333 50 12 C 50 10.75 49.538271 9.2492081 48.332031 8.0429688 C 47.125792 6.8367292 45.2 6 42.5 6 C 31.839262 6 25.632226 9.5475932 24.972656 9.9335938 C 24.2857 9.0008677 23.017583 7.3959729 21.189453 5.9160156 C 19.289457 4.3778796 16.830333 3 14 3 z M 14 5 C 16.169667 5 18.238887 6.1003392 19.931641 7.4707031 C 21.624395 8.8410671 22.911452 10.452422 23.503906 11.267578 C 24.161779 12.172153 24.993946 14.433851 24.902344 16.15625 C 24.856544 17.017449 24.61545 17.711267 24.169922 18.181641 C 23.724393 18.652014 23.028212 19 21.722656 19 C 18.460751 19 16.572016 17.872979 15.427734 16.777344 C 14.283452 15.681708 13.945312 14.673828 13.945312 14.673828 A 1.0001 1.0001 0 1 0 12.054688 15.326172 C 12.054688 15.326172 12.578204 16.818292 14.044922 18.222656 C 15.51164 19.627021 17.984561 21 21.722656 21 C 23.417101 21 24.754747 20.473252 25.621094 19.558594 C 25.710369 19.46434 25.790613 19.365629 25.869141 19.265625 C 27.168688 19.362848 28.41398 19.580709 29.585938 19.910156 C 29.589294 19.9111 29.592348 19.913117 29.595703 19.914062 A 1.0001221 1.0001221 0 0 0 29.878906 19.992188 C 34.294868 21.316893 37.610387 24.228522 38.654297 28.125 C 39.281169 30.464387 39.013008 32.88771 38.025391 35.1875 C 37.991905 34.960689 37.964729 34.733365 37.904297 34.507812 C 37.1944 31.858256 34.78396 30.058396 31.738281 29.205078 C 28.692603 28.351759 24.919663 28.377714 21.037109 29.417969 C 17.154555 30.458224 13.873162 32.322226 11.662109 34.583984 C 9.4510547 36.845741 8.2627592 39.610209 8.9726562 42.259766 C 9.007555 42.390018 9.0644297 42.508636 9.1074219 42.634766 C 7.2566977 41.166283 5.9258681 39.27808 5.3300781 37.054688 C 4.7021834 34.710833 4.9630984 32.292673 5.9550781 29.984375 C 6.0080336 29.986633 6.0578529 30 6.1113281 30 C 7.366955 30 8.3316625 29.262305 9.0136719 28.304688 C 9.4978211 28.543634 10.022319 28.708984 10.59375 28.708984 C 12.581013 28.708984 14.214844 27.077107 14.214844 25.089844 C 14.214844 23.780335 13.400207 22.784329 12.347656 22.148438 C 12.534593 21.710694 12.839844 21.329825 12.839844 20.828125 C 12.839844 18.840862 11.207966 17.207031 9.2207031 17.207031 C 8.7760058 17.207031 8.3703322 17.305143 8.0019531 17.472656 C 8.0216164 13.913509 8.525556 9.8958706 10.070312 7.5507812 C 11.202589 5.8323667 12.986511 5 14 5 z M 42.5 8 C 44.8 8 46.124208 8.6632707 46.917969 9.4570312 C 47.711729 10.250792 48 11.25 48 12 C 48 13.116667 47.78531 14.114582 47.142578 14.955078 C 46.499846 15.795574 45.376248 16.558316 43.283203 17.023438 C 39.196709 17.93113 32.893202 17.958861 30.148438 17.998047 C 29.056025 17.688233 27.919257 17.461673 26.744141 17.333984 C 26.822657 16.979808 26.879359 16.622406 26.898438 16.263672 C 26.987137 14.595877 26.507192 13.037754 25.894531 11.691406 C 26.388017 11.39681 32.190348 8 42.5 8 z M 9.2207031 19.207031 C 10.12544 19.207031 10.839844 19.923388 10.839844 20.828125 C 10.839844 21.237477 10.693115 21.602475 10.447266 21.886719 A 1.0001 1.0001 0 0 0 10.970703 23.513672 C 11.68076 23.683026 12.214844 24.315253 12.214844 25.089844 C 12.214844 25.99458 11.498487 26.708984 10.59375 26.708984 C 10.149478 26.708984 9.757553 26.535267 9.4648438 26.25 A 1.0001 1.0001 0 0 0 7.8007812 26.707031 C 7.6014668 27.447975 6.9283098 28 6.1113281 28 C 5.1343909 28 4.3613281 27.226937 4.3613281 26.25 C 4.3613281 25.904069 4.4587101 25.587625 4.6289062 25.318359 A 1.0001 1.0001 0 0 0 4.125 23.845703 C 3.4561503 23.602485 2.9746094 22.964099 2.9746094 22.199219 C 2.9746094 21.222282 3.7476722 20.449219 4.7246094 20.449219 C 5.2112439 20.449219 5.6395441 20.643422 5.9589844 20.960938 A 1.0001 1.0001 0 0 0 7.6386719 20.470703 C 7.8006212 19.75086 8.4401177 19.207031 9.2207031 19.207031 z M 7.3203125 22.308594 C 7.2281719 22.314756 7.1357187 22.330594 7.0429688 22.355469 C 6.2999688 22.554469 5.8529219 23.297672 6.0449219 24.013672 C 6.2369219 24.729672 6.9962813 25.148219 7.7382812 24.949219 C 8.4802812 24.750219 8.926375 24.008969 8.734375 23.292969 C 8.566375 22.666469 7.9652969 22.265459 7.3203125 22.308594 z M 26.736328 30.607422 C 28.373949 30.580859 29.89119 30.764384 31.199219 31.130859 C 33.815276 31.863809 35.496833 33.256762 35.970703 35.025391 C 36.444573 36.794021 35.684321 38.840487 33.785156 40.783203 C 33.676168 40.89469 33.551624 41.003282 33.435547 41.113281 C 31.245515 42.919145 28.509435 44.375021 25.375 45.214844 C 21.779644 46.178261 18.226765 46.18915 15.125 45.455078 C 12.831018 44.687572 11.343177 43.380224 10.904297 41.742188 C 10.430428 39.973557 11.192632 37.925138 13.091797 35.982422 C 14.990963 34.039706 17.98148 32.30698 21.554688 31.349609 C 23.341292 30.870923 25.098708 30.633985 26.736328 30.607422 z M 31.5 33 A 1.5 2.5 0 0 0 31.5 38 A 1.5 2.5 0 0 0 31.5 33 z M 15.5 36 A 1.5 2.5 0 0 0 15.5 41 A 1.5 2.5 0 0 0 15.5 36 z M 24.916016 37.992188 C 24.730547 37.97325 24.529922 37.979875 24.326172 38.015625 C 23.511172 38.158625 22.926484 38.715766 23.021484 39.259766 C 23.116484 39.802766 23.856875 40.127375 24.671875 39.984375 C 25.486875 39.841375 26.071562 39.284234 25.976562 38.740234 C 25.905313 38.332984 25.472422 38.049 24.916016 37.992188 z M 26.992188 39.990234 A 1.0001 1.0001 0 0 0 26.304688 40.292969 C 25.558066 41.039589 24.673422 41.22717 23.154297 41.009766 A 1.0003071 1.0003071 0 0 0 22.871094 42.990234 C 24.719969 43.25483 26.46537 42.960414 27.71875 41.707031 A 1.0001 1.0001 0 0 0 26.992188 39.990234 z"/></svg>