<?xml version="1.0" ?><svg viewBox="0 0 32 32" fill="#1DB954" xmlns="http://www.w3.org/2000/svg"><title/><g data-name="emoji 11" id="emoji_11"><path d="M27,10a1,1,0,0,1-.84-.46c-.15-.24-.65-.85-1.2-1.5A1,1,0,0,1,25,6.64a1,1,0,0,1,1.41.1C26.67,7,27.49,8,27.8,8.47a1,1,0,0,1-.3,1.38A1,1,0,0,1,27,10Z"/><path d="M16,30A14,14,0,1,1,23.83,4.39a1,1,0,1,1-1.12,1.66A12,12,0,1,0,28,16a1,1,0,0,1,2,0A14,14,0,0,1,16,30Z"/><path d="M18,25H14a5.57,5.57,0,0,1-4.32-2.34A7.83,7.83,0,0,1,8,18a1,1,0,0,1,1-1H23a1,1,0,0,1,1,1c0,2.93-2.2,6.5-5.36,7A4,4,0,0,1,18,25Zm-7.89-6a6.09,6.09,0,0,0,1.14,2.43A3.75,3.75,0,0,0,14,23h4a1.56,1.56,0,0,0,.31,0c1.77-.25,3.18-2.16,3.58-4Z"/><path d="M22.38,20.38H9.62a.5.5,0,0,1,0-1H22.38a.5.5,0,0,1,0,1Z"/><path d="M18,24.5H14a.5.5,0,0,1-.5-.5v-.5a2.5,2.5,0,0,1,5,0V24a.47.47,0,0,1-.15.35A.6.6,0,0,1,18,24.5ZM18,24h0Zm-3.5-.46h3a1.5,1.5,0,0,0-3,0Z"/><path d="M11,14a3,3,0,1,1,3-3A3,3,0,0,1,11,14Zm0-4a1,1,0,1,0,1,1A1,1,0,0,0,11,10Z"/><path d="M21,14a3,3,0,1,1,3-3A3,3,0,0,1,21,14Zm0-4a1,1,0,1,0,1,1A1,1,0,0,0,21,10Z"/></g></svg>